<?xml version="1.0" standalone="no"?>
<!DOCTYPE svg PUBLIC "-//W3C//DTD SVG 20010904//EN"
 "http://www.w3.org/TR/2001/REC-SVG-20010904/DTD/svg10.dtd">
<svg version="1.0" xmlns="http://www.w3.org/2000/svg"
 width="3431.000000pt" height="3431.000000pt" viewBox="0 0 3431.000000 3431.000000"
 preserveAspectRatio="xMidYMid meet">
<metadata>
Created by potrace 1.14, written by Peter Selinger 2001-2017
</metadata>
<g transform="translate(0.000000,3431.000000) scale(0.100000,-0.100000)"
fill="#000000" stroke="none">
<path d="M16658 34305 c-2 -1 -88 -6 -193 -10 -104 -3 -210 -8 -235 -10 -25
-1 -97 -6 -161 -9 -63 -4 -131 -8 -150 -11 -19 -2 -72 -7 -118 -9 -114 -8
-208 -15 -256 -21 -22 -2 -67 -7 -100 -10 -119 -12 -152 -15 -275 -30 -69 -9
-143 -18 -165 -21 -67 -8 -119 -14 -145 -19 -14 -2 -47 -7 -75 -10 -27 -3 -90
-12 -140 -20 -49 -7 -106 -16 -125 -19 -19 -3 -91 -14 -160 -26 -69 -11 -141
-23 -160 -26 -19 -3 -54 -10 -78 -15 -23 -5 -59 -12 -80 -15 -58 -8 -72 -11
-152 -27 -41 -9 -86 -18 -100 -21 -131 -24 -406 -84 -645 -142 -82 -19 -158
-37 -168 -39 -10 -2 -27 -7 -37 -10 -10 -3 -27 -8 -37 -10 -33 -7 -397 -106
-478 -130 -44 -13 -136 -40 -204 -60 -69 -20 -201 -62 -295 -92 -94 -31 -175
-58 -181 -59 -5 -1 -39 -12 -75 -24 -36 -13 -108 -37 -160 -55 -182 -63 -441
-158 -515 -189 -16 -7 -46 -19 -65 -26 -19 -6 -44 -16 -55 -20 -11 -5 -45 -19
-75 -30 -30 -12 -64 -26 -75 -31 -11 -4 -92 -38 -180 -74 -88 -37 -173 -73
-190 -80 -16 -8 -115 -52 -220 -98 -244 -109 -377 -172 -655 -311 -297 -149
-421 -214 -695 -366 -54 -31 -353 -202 -397 -229 -377 -226 -835 -524 -1138
-740 -85 -61 -166 -119 -180 -128 -35 -25 -421 -314 -445 -334 -11 -9 -67 -54
-125 -100 -58 -45 -107 -85 -110 -88 -3 -3 -22 -19 -43 -34 -20 -16 -50 -39
-65 -52 -15 -14 -31 -28 -37 -32 -17 -13 -119 -97 -131 -108 -6 -5 -33 -29
-60 -51 -27 -23 -60 -52 -74 -64 -14 -11 -47 -40 -74 -63 -27 -23 -59 -51 -71
-62 -13 -11 -51 -45 -85 -75 -68 -59 -76 -67 -231 -210 -306 -282 -734 -711
-971 -971 -13 -14 -60 -66 -104 -115 -99 -108 -123 -134 -244 -274 -100 -115
-135 -155 -176 -205 -44 -53 -249 -303 -262 -320 -7 -9 -85 -107 -115 -145 -7
-8 -48 -62 -92 -120 -44 -58 -82 -107 -85 -110 -3 -3 -30 -39 -60 -80 -30 -41
-58 -76 -62 -78 -5 -2 -8 -10 -8 -17 0 -7 -4 -15 -8 -17 -4 -1 -37 -43 -72
-93 -36 -49 -69 -94 -73 -100 -54 -68 -437 -639 -557 -833 -177 -284 -413
-682 -427 -718 -3 -11 -9 -21 -13 -24 -3 -3 -27 -43 -52 -90 -25 -47 -57 -105
-70 -130 -65 -117 -145 -273 -243 -470 -58 -118 -111 -222 -116 -230 -5 -8
-13 -24 -18 -35 -5 -11 -28 -60 -51 -110 -52 -111 -200 -436 -200 -440 0 -1
-9 -22 -19 -46 -11 -24 -20 -48 -20 -52 1 -4 -6 -18 -13 -30 -8 -12 -25 -49
-38 -82 -13 -33 -28 -66 -33 -72 -5 -7 -6 -13 -1 -13 5 0 5 -4 -1 -8 -5 -4
-18 -27 -27 -52 -24 -64 -178 -459 -193 -495 -7 -16 -35 -93 -63 -170 -121
-336 -220 -633 -292 -875 -71 -239 -102 -346 -105 -360 -2 -8 -16 -58 -30
-110 -25 -91 -30 -108 -39 -147 -2 -10 -20 -79 -40 -153 -19 -74 -37 -146 -40
-160 -3 -14 -21 -92 -41 -175 -19 -82 -42 -184 -51 -225 -9 -41 -17 -82 -19
-90 -2 -8 -13 -62 -25 -120 -21 -103 -24 -119 -35 -170 -3 -14 -8 -40 -11 -59
-3 -18 -8 -43 -10 -55 -2 -11 -8 -46 -14 -76 -6 -30 -12 -66 -15 -80 -3 -14
-8 -45 -11 -70 -3 -25 -8 -47 -9 -50 -2 -3 -6 -26 -10 -50 -3 -25 -15 -97 -25
-160 -20 -123 -23 -140 -40 -265 -5 -44 -12 -91 -14 -105 -3 -14 -10 -68 -16
-120 -6 -52 -13 -106 -15 -120 -2 -14 -7 -52 -10 -85 -4 -33 -8 -71 -10 -85
-2 -14 -7 -56 -10 -95 -4 -38 -8 -81 -10 -95 -2 -14 -7 -59 -10 -100 -4 -41
-8 -91 -10 -110 -2 -19 -7 -73 -10 -120 -4 -47 -8 -105 -10 -130 -4 -39 -10
-135 -20 -325 -27 -466 -27 -1529 0 -1840 1 -22 6 -96 10 -165 3 -69 8 -141
10 -160 2 -19 6 -75 10 -125 3 -49 8 -103 10 -120 2 -16 7 -64 10 -106 3 -42
8 -87 10 -100 2 -13 6 -60 10 -104 3 -44 8 -87 10 -95 2 -8 6 -45 10 -82 3
-37 8 -77 10 -90 2 -13 6 -50 10 -83 4 -32 8 -66 10 -75 1 -8 6 -42 9 -75 4
-33 9 -67 11 -75 2 -8 6 -37 10 -65 5 -45 18 -128 29 -195 3 -14 7 -47 11 -74
3 -27 8 -52 9 -55 2 -3 7 -30 10 -60 4 -29 8 -57 11 -60 2 -4 6 -25 9 -46 3
-22 9 -65 15 -95 5 -30 12 -71 16 -90 16 -92 89 -452 121 -591 19 -86 36 -165
38 -176 3 -11 9 -37 15 -59 6 -21 29 -115 51 -209 43 -175 51 -207 120 -455
91 -328 223 -748 326 -1040 20 -58 47 -134 60 -170 12 -36 39 -108 59 -160 20
-52 38 -99 39 -105 2 -5 7 -19 11 -30 5 -11 33 -83 63 -160 91 -234 201 -498
258 -622 13 -28 24 -54 24 -57 0 -3 17 -42 39 -88 21 -46 49 -105 61 -133 65
-142 125 -266 256 -529 80 -159 155 -307 168 -330 13 -23 43 -77 66 -121 100
-188 396 -704 420 -732 5 -7 10 -14 10 -17 0 -9 223 -363 327 -519 29 -43 53
-82 53 -87 0 -5 3 -10 8 -12 4 -1 38 -50 77 -108 38 -58 85 -127 105 -155 20
-27 88 -122 150 -210 94 -132 226 -312 283 -385 7 -9 25 -33 42 -55 16 -22 34
-45 40 -52 5 -7 15 -18 20 -25 151 -194 190 -244 195 -248 3 -3 21 -25 40 -50
19 -25 37 -47 40 -50 4 -3 37 -43 76 -90 38 -47 73 -90 79 -96 10 -11 63 -73
139 -163 21 -25 48 -56 60 -68 11 -12 26 -28 31 -35 36 -46 312 -350 475 -522
88 -92 550 -557 550 -553 0 2 38 -33 84 -78 46 -44 125 -118 176 -165 51 -47
98 -90 104 -95 27 -25 198 -177 222 -197 15 -13 34 -30 43 -38 9 -9 45 -40 81
-70 36 -30 67 -57 70 -60 9 -9 171 -143 255 -211 44 -35 89 -72 100 -82 11
-10 45 -37 75 -60 30 -23 89 -68 130 -101 41 -32 89 -69 105 -82 59 -46 335
-250 405 -299 39 -27 86 -61 104 -75 19 -14 44 -32 56 -40 12 -8 48 -34 81
-58 32 -23 63 -42 68 -42 5 0 11 -3 13 -8 4 -10 365 -252 377 -252 5 0 11 -3
13 -8 6 -14 552 -352 569 -352 5 0 9 -3 9 -7 0 -5 10 -13 23 -19 12 -6 85 -47
162 -91 126 -72 230 -131 381 -214 96 -53 360 -189 519 -268 178 -88 475 -231
480 -231 2 0 36 -15 77 -34 564 -262 1433 -593 2028 -771 30 -9 84 -26 120
-36 105 -32 373 -110 394 -114 10 -3 42 -11 70 -19 130 -38 634 -162 734 -181
13 -2 31 -6 40 -9 9 -3 28 -7 42 -10 14 -2 88 -18 165 -34 77 -17 154 -32 170
-35 17 -3 89 -17 160 -31 72 -14 173 -32 225 -41 52 -9 109 -18 125 -21 152
-26 197 -33 245 -39 30 -4 62 -9 70 -10 45 -8 100 -16 135 -20 22 -3 56 -7 75
-10 43 -7 73 -11 230 -30 171 -20 191 -23 305 -34 198 -20 273 -27 390 -36
141 -11 168 -13 285 -21 63 -3 133 -8 155 -9 379 -26 1562 -26 1860 0 28 2
100 7 160 10 61 3 130 8 155 10 25 2 81 7 125 10 44 3 105 8 135 11 30 3 78 7
105 9 28 3 70 7 95 10 83 9 134 14 195 20 33 3 71 8 85 10 14 3 50 7 80 10 30
3 66 7 80 10 24 4 48 7 160 21 30 3 64 8 75 10 11 2 72 11 135 19 63 9 151 22
195 30 44 8 94 16 110 18 49 8 107 18 155 27 25 5 61 12 80 14 19 3 46 8 60
11 14 3 39 8 55 11 94 16 493 98 565 116 47 11 94 22 105 24 50 10 63 13 105
24 25 7 55 14 68 16 12 3 78 18 145 35 67 17 129 33 137 34 8 2 15 4 15 5 0 1
7 3 15 5 8 2 51 13 95 25 44 12 89 23 99 26 10 2 33 8 51 14 18 6 41 12 51 15
10 2 51 13 89 25 39 11 77 22 85 24 174 44 1026 325 1155 381 17 7 63 25 103
39 41 14 95 35 120 45 26 11 97 39 157 62 61 23 114 46 120 50 5 5 14 9 21 9
15 0 467 193 654 280 74 34 163 75 197 91 94 43 587 290 673 336 42 23 102 55
135 72 33 18 67 36 75 41 8 5 74 41 145 81 129 71 452 258 503 291 15 10 34
21 42 25 8 4 83 49 165 101 83 52 173 108 200 126 44 27 213 137 255 166 8 5
69 47 135 91 102 70 439 307 470 331 6 4 107 81 225 170 118 89 220 167 227
172 7 6 18 16 25 21 77 60 214 170 321 259 205 169 218 179 247 206 16 14 52
45 81 70 28 25 64 56 79 70 15 14 43 39 62 55 30 26 84 74 227 203 188 170
664 641 867 858 166 177 175 187 245 265 35 40 69 77 74 83 6 6 30 34 55 61
25 28 68 77 96 110 28 33 71 83 95 110 23 28 50 59 58 69 9 10 23 26 31 35 8
9 33 39 55 66 22 28 44 55 50 61 5 6 24 28 40 49 17 21 44 55 60 74 17 20 33
40 37 46 4 5 25 31 45 56 21 26 49 62 63 80 54 71 150 195 158 205 9 10 211
282 274 369 229 313 616 901 793 1203 32 55 118 199 126 212 14 23 107 188
144 255 18 33 53 96 77 140 142 254 424 819 555 1110 25 55 58 128 74 163 16
35 29 65 29 67 0 3 11 28 24 57 14 29 37 82 51 118 15 36 35 83 45 105 30 67
185 461 239 610 29 77 58 156 66 175 19 48 111 317 141 415 14 44 30 91 36
105 18 44 146 464 179 590 11 41 26 95 34 120 8 25 24 81 35 125 12 44 26 96
31 115 5 19 11 42 13 50 2 8 25 101 50 205 26 105 53 217 61 250 19 85 35 157
40 180 2 11 22 106 44 212 22 105 43 207 46 225 3 18 12 69 21 113 23 120 43
236 48 275 2 19 11 76 20 125 8 50 18 110 21 135 3 25 8 52 10 60 2 8 7 40 10
70 3 30 8 62 10 70 4 14 14 93 20 150 4 36 16 131 20 160 2 14 6 48 10 75 3
28 7 73 10 100 3 28 8 66 10 85 2 19 7 64 10 100 3 36 8 85 11 110 2 25 7 72
9 105 3 33 7 85 10 115 15 167 30 428 42 695 10 244 10 1136 0 1370 -11 230
-21 404 -32 545 -2 30 -7 96 -10 145 -4 50 -8 106 -10 125 -8 68 -15 136 -20
200 -3 36 -8 81 -10 100 -3 19 -7 55 -9 80 -3 25 -12 104 -21 175 -9 72 -18
148 -20 170 -3 22 -7 56 -10 75 -3 19 -8 51 -10 70 -2 19 -7 53 -10 75 -4 22
-8 51 -10 65 -14 91 -46 289 -50 310 -6 35 -36 209 -40 241 -6 38 -112 560
-136 664 -11 50 -22 101 -25 115 -3 14 -10 43 -16 65 -5 22 -11 47 -13 55 -12
60 -139 553 -149 580 -3 8 -8 26 -10 40 -3 14 -15 57 -26 95 -12 39 -23 77
-25 85 -3 16 -56 189 -112 370 -154 501 -432 1250 -618 1665 -8 17 -51 113
-95 215 -45 102 -86 189 -91 194 -5 6 -9 18 -9 28 0 10 -4 18 -10 18 -5 0 -10
6 -10 14 0 8 -21 56 -46 107 -121 247 -305 611 -332 660 -16 30 -48 89 -71
133 -23 43 -53 96 -67 117 -13 21 -24 41 -24 44 0 10 -190 340 -315 546 -235
390 -580 909 -795 1199 -143 193 -297 397 -334 445 -26 33 -59 76 -74 95 -80
102 -153 193 -205 255 -33 39 -67 79 -76 90 -59 73 -107 131 -111 135 -3 3
-33 37 -66 75 -123 145 -231 267 -388 439 -112 123 -313 331 -492 510 -298
298 -459 451 -718 681 -37 33 -80 71 -95 85 -15 14 -52 45 -81 70 -29 25 -57
50 -64 56 -11 10 -181 154 -225 189 -13 11 -38 32 -55 46 -56 47 -351 282
-452 360 -363 280 -1020 738 -1297 904 -19 11 -84 52 -146 90 -61 39 -131 81
-154 94 -23 13 -64 38 -92 55 -27 17 -61 38 -75 45 -14 8 -97 56 -185 106 -88
51 -192 109 -230 130 -39 21 -94 51 -122 67 -29 15 -77 41 -107 58 -69 38
-674 340 -741 370 -46 20 -114 52 -250 115 -27 13 -88 40 -135 60 -47 20 -98
43 -115 50 -88 40 -434 181 -600 244 -104 40 -199 76 -210 81 -11 5 -47 18
-80 30 -33 11 -69 25 -80 29 -11 5 -47 18 -80 29 -33 11 -139 47 -235 80 -311
107 -501 166 -844 262 -302 86 -359 102 -376 105 -8 2 -89 21 -180 44 -244 59
-341 82 -375 87 -16 3 -43 9 -60 14 -16 5 -66 16 -110 24 -44 9 -89 18 -100
20 -11 3 -90 18 -175 35 -85 17 -177 35 -205 41 -27 5 -66 12 -85 15 -19 4
-72 13 -118 21 -45 8 -99 17 -120 20 -20 3 -91 14 -157 24 -66 11 -142 22
-170 25 -27 3 -57 8 -65 10 -8 2 -37 7 -65 10 -54 6 -95 11 -165 20 -77 10
-103 13 -170 20 -36 3 -72 8 -80 10 -8 2 -51 7 -95 11 -100 8 -118 10 -180 17
-27 3 -86 9 -130 12 -44 4 -96 8 -115 10 -19 2 -78 6 -130 10 -52 3 -120 8
-150 10 -30 2 -111 7 -180 10 -69 4 -156 9 -195 11 -80 5 -1212 14 -1217 9z"/>
</g>
</svg>
